<?xml version="1.0" encoding="UTF-8" standalone="yes"?><svg xmlns="http://www.w3.org/2000/svg" xmlns:xlink="http://www.w3.org/1999/xlink" height="269pt" style="width:726px;height:269px;" version="1.1" viewBox="0 0 726 269" width="726pt"><defs><filter height="300%" id="f1" width="300%" x="-1" y="-1"><feGaussianBlur result="blurOut" stdDeviation="2.0"/><feColorMatrix in="blurOut" result="blurOut2" type="matrix" values="0 0 0 0 0 0 0 0 0 0 0 0 0 0 0 0 0 0 .4 0"/><feOffset dx="4.0" dy="4.0" in="blurOut2" result="blurOut3"/><feBlend in="SourceGraphic" in2="blurOut3" mode="normal"/></filter></defs><g><rect fill="#FEFECE" filter="url(#f1)" height="252.875" style="stroke: #A80036; stroke-width: 1.5;" width="711" x="6" y="8"/><ellipse cx="324.75" cy="24" fill="#ADD1B2" rx="11" ry="11" style="stroke: #A80036; stroke-width: 1.0;"/><path d="M327.7188,29.6406 Q327.1406,29.9375 326.5,30.0859 Q325.8594,30.2344 325.1563,30.2344 Q322.6563,30.2344 321.3359,28.5859 Q320.0156,26.9375 320.0156,23.8125 Q320.0156,20.6875 321.3359,19.0313 Q322.6563,17.375 325.1563,17.375 Q325.8594,17.375 326.5078,17.5313 Q327.1563,17.6875 327.7188,17.9844 L327.7188,20.7031 Q327.0938,20.125 326.5,19.8516 Q325.9063,19.5781 325.2813,19.5781 Q323.9375,19.5781 323.25,20.6484 Q322.5625,21.7188 322.5625,23.8125 Q322.5625,25.9063 323.25,26.9766 Q323.9375,28.0469 325.2813,28.0469 Q325.9063,28.0469 326.5,27.7734 Q327.0938,27.5 327.7188,26.9219 L327.7188,29.6406 Z "/><text fill="#000000" font-family="sans-serif" font-size="12" lengthAdjust="spacingAndGlyphs" textLength="65" x="345.25" y="28.1543">Cardinality</text><line style="stroke: #A80036; stroke-width: 1.5;" x1="7" x2="716" y1="40" y2="40"/><rect fill="none" height="6" style="stroke: #C82930; stroke-width: 1.0;" width="6" x="14" y="48.9023"/><text fill="#000000" font-family="sans-serif" font-size="11" lengthAdjust="spacingAndGlyphs" textLength="182" x="26" y="54.2104">number                        : String</text><rect fill="none" height="6" style="stroke: #C82930; stroke-width: 1.0;" width="6" x="14" y="61.707"/><text fill="#000000" font-family="sans-serif" font-size="11" lengthAdjust="spacingAndGlyphs" textLength="173" x="26" y="67.0151">order                         : String</text><rect fill="none" height="6" style="stroke: #C82930; stroke-width: 1.0;" width="6" x="14" y="74.5117"/><text fill="#000000" font-family="sans-serif" font-size="11" lengthAdjust="spacingAndGlyphs" textLength="194" x="26" y="79.8198">is_primary                    : Boolean</text><rect fill="none" height="6" style="stroke: #C82930; stroke-width: 1.0;" width="6" x="14" y="87.3164"/><text fill="#000000" font-family="sans-serif" font-size="11" lengthAdjust="spacingAndGlyphs" textLength="193" x="26" y="92.6245">is_alternate                  : Boolean</text><rect fill="none" height="6" style="stroke: #C82930; stroke-width: 1.0;" width="6" x="14" y="100.1211"/><text fill="#000000" font-family="sans-serif" font-size="11" lengthAdjust="spacingAndGlyphs" textLength="175" x="26" y="105.4292">direction                     : String</text><line style="stroke: #A80036; stroke-width: 1.5;" x1="7" x2="716" y1="112.0234" y2="112.0234"/><ellipse cx="17" cy="123.9258" fill="#84BE84" rx="3" ry="3" style="stroke: #038048; stroke-width: 1.0;"/><text fill="#000000" font-family="sans-serif" font-size="11" lengthAdjust="spacingAndGlyphs" textLength="685" x="26" y="126.2339">Cardinality( final String number, final String order, final String direction, final Boolean is_primary, Boolean is_alternate )</text><ellipse cx="17" cy="136.7305" fill="#84BE84" rx="3" ry="3" style="stroke: #038048; stroke-width: 1.0;"/><text fill="#000000" font-family="sans-serif" font-size="11" lengthAdjust="spacingAndGlyphs" textLength="242" x="26" y="139.0386">Cardinality( @NotNull final String number )</text><ellipse cx="17" cy="149.5352" fill="#84BE84" rx="3" ry="3" style="stroke: #038048; stroke-width: 1.0;"/><text fill="#000000" font-family="sans-serif" font-size="11" lengthAdjust="spacingAndGlyphs" textLength="291" x="26" y="151.8433">Cardinality( final String number, final String order )</text><ellipse cx="17" cy="162.3398" fill="#84BE84" rx="3" ry="3" style="stroke: #038048; stroke-width: 1.0;"/><text fill="#000000" font-family="sans-serif" font-size="11" lengthAdjust="spacingAndGlyphs" textLength="182" x="26" y="164.6479">getDirection()                : String</text><ellipse cx="17" cy="175.1445" fill="#84BE84" rx="3" ry="3" style="stroke: #038048; stroke-width: 1.0;"/><text fill="#000000" font-family="sans-serif" font-size="11" lengthAdjust="spacingAndGlyphs" textLength="189" x="26" y="177.4526">getNumber()                   : String</text><ellipse cx="17" cy="187.9492" fill="#84BE84" rx="3" ry="3" style="stroke: #038048; stroke-width: 1.0;"/><text fill="#000000" font-family="sans-serif" font-size="11" lengthAdjust="spacingAndGlyphs" textLength="181" x="26" y="190.2573">getOrder()                    : String</text><ellipse cx="17" cy="200.7539" fill="#84BE84" rx="3" ry="3" style="stroke: #038048; stroke-width: 1.0;"/><text fill="#000000" font-family="sans-serif" font-size="11" lengthAdjust="spacingAndGlyphs" textLength="200" x="26" y="203.062">getIs_primary()               : Boolean</text><ellipse cx="17" cy="213.5586" fill="#84BE84" rx="3" ry="3" style="stroke: #038048; stroke-width: 1.0;"/><text fill="#000000" font-family="sans-serif" font-size="11" lengthAdjust="spacingAndGlyphs" textLength="199" x="26" y="215.8667">getIs_alternate()             : Boolean</text><ellipse cx="17" cy="226.3633" fill="#84BE84" rx="3" ry="3" style="stroke: #038048; stroke-width: 1.0;"/><text fill="#000000" font-family="sans-serif" font-size="11" lengthAdjust="spacingAndGlyphs" textLength="175" x="26" y="228.6714">toString()                    : String</text><ellipse cx="17" cy="239.168" fill="#84BE84" rx="3" ry="3" style="stroke: #038048; stroke-width: 1.0;"/><text fill="#000000" font-family="sans-serif" font-size="11" lengthAdjust="spacingAndGlyphs" textLength="208" x="26" y="241.4761">equals( final Object obj )    : boolean</text><ellipse cx="17" cy="251.9727" fill="#84BE84" rx="3" ry="3" style="stroke: #038048; stroke-width: 1.0;"/><text fill="#000000" font-family="sans-serif" font-size="11" lengthAdjust="spacingAndGlyphs" textLength="167" x="26" y="254.2808">hashCode()                    : int</text></g></svg>