<?xml version="1.0" encoding="UTF-8" standalone="yes"?><svg xmlns="http://www.w3.org/2000/svg" xmlns:xlink="http://www.w3.org/1999/xlink" height="244pt" style="width:688px;height:244px;" version="1.1" viewBox="0 0 688 244" width="688pt"><defs><filter height="300%" id="f1" width="300%" x="-1" y="-1"><feGaussianBlur result="blurOut" stdDeviation="2.0"/><feColorMatrix in="blurOut" result="blurOut2" type="matrix" values="0 0 0 0 0 0 0 0 0 0 0 0 0 0 0 0 0 0 .4 0"/><feOffset dx="4.0" dy="4.0" in="blurOut2" result="blurOut3"/><feBlend in="SourceGraphic" in2="blurOut3" mode="normal"/></filter></defs><g><rect fill="#FEFECE" filter="url(#f1)" height="227.2656" style="stroke: #A80036; stroke-width: 1.5;" width="673" x="6" y="8"/><ellipse cx="309.25" cy="24" fill="#ADD1B2" rx="11" ry="11" style="stroke: #A80036; stroke-width: 1.0;"/><path d="M312.2188,29.6406 Q311.6406,29.9375 311,30.0859 Q310.3594,30.2344 309.6563,30.2344 Q307.1563,30.2344 305.8359,28.5859 Q304.5156,26.9375 304.5156,23.8125 Q304.5156,20.6875 305.8359,19.0313 Q307.1563,17.375 309.6563,17.375 Q310.3594,17.375 311.0078,17.5313 Q311.6563,17.6875 312.2188,17.9844 L312.2188,20.7031 Q311.5938,20.125 311,19.8516 Q310.4063,19.5781 309.7813,19.5781 Q308.4375,19.5781 307.75,20.6484 Q307.0625,21.7188 307.0625,23.8125 Q307.0625,25.9063 307.75,26.9766 Q308.4375,28.0469 309.7813,28.0469 Q310.4063,28.0469 311,27.7734 Q311.5938,27.5 312.2188,26.9219 L312.2188,29.6406 Z "/><text fill="#000000" font-family="sans-serif" font-size="12" lengthAdjust="spacingAndGlyphs" textLength="58" x="329.75" y="28.1543">Relations</text><line style="stroke: #A80036; stroke-width: 1.5;" x1="7" x2="678" y1="40" y2="40"/><rect fill="none" height="6" style="stroke: #C82930; stroke-width: 1.0;" width="6" x="14" y="48.9023"/><text fill="#000000" font-family="sans-serif" font-size="11" lengthAdjust="spacingAndGlyphs" textLength="199" x="26" y="54.2104">input_compound    : Set&lt;Relation&gt;</text><rect fill="none" height="6" style="stroke: #C82930; stroke-width: 1.0;" width="6" x="14" y="61.707"/><text fill="#000000" font-family="sans-serif" font-size="11" lengthAdjust="spacingAndGlyphs" textLength="203" x="26" y="67.0151">output_compound   : Set&lt;Relation&gt;</text><rect fill="none" height="6" style="stroke: #C82930; stroke-width: 1.0;" width="6" x="14" y="74.5117"/><text fill="#000000" font-family="sans-serif" font-size="11" lengthAdjust="spacingAndGlyphs" textLength="174" x="26" y="79.8198">part_of           : Set&lt;Relation&gt;</text><line style="stroke: #A80036; stroke-width: 1.5;" x1="7" x2="678" y1="86.4141" y2="86.4141"/><rect fill="#F24D5C" height="6" style="stroke: #C82930; stroke-width: 1.0;" width="6" x="14" y="95.3164"/><text fill="#000000" font-family="sans-serif" font-size="11" lengthAdjust="spacingAndGlyphs" textLength="521" x="26" y="100.6245">hasCompound( @NonNull final Set&lt;Relation&gt; relations, @NonNull final String id ) : boolean</text><rect fill="#F24D5C" height="6" style="stroke: #C82930; stroke-width: 1.0;" width="6" x="14" y="108.1211"/><text fill="#000000" font-family="sans-serif" font-size="11" lengthAdjust="spacingAndGlyphs" textLength="647" x="26" y="113.4292">hasCompound( @NonNull final Set&lt;Relation&gt; relations, @NonNull final String id, final boolean isLeftId ) : boolean</text><ellipse cx="17" cy="123.9258" fill="#84BE84" rx="3" ry="3" style="stroke: #038048; stroke-width: 1.0;"/><text fill="#000000" font-family="sans-serif" font-size="11" lengthAdjust="spacingAndGlyphs" textLength="522" x="26" y="126.2339">Relations(final Set&lt;Relation&gt; input, final Set&lt;Relation&gt; output, final Set&lt;Relation&gt; part_of)</text><ellipse cx="17" cy="136.7305" fill="#84BE84" rx="3" ry="3" style="stroke: #038048; stroke-width: 1.0;"/><text fill="#000000" font-family="sans-serif" font-size="11" lengthAdjust="spacingAndGlyphs" textLength="60" x="26" y="139.0386">Relations()</text><ellipse cx="17" cy="149.5352" fill="#84BE84" rx="3" ry="3" style="stroke: #038048; stroke-width: 1.0;"/><text fill="#000000" font-family="sans-serif" font-size="11" lengthAdjust="spacingAndGlyphs" textLength="221" x="26" y="151.8433">getInputCompound()    : Set&lt;Relation&gt;</text><ellipse cx="17" cy="162.3398" fill="#84BE84" rx="3" ry="3" style="stroke: #038048; stroke-width: 1.0;"/><text fill="#000000" font-family="sans-serif" font-size="11" lengthAdjust="spacingAndGlyphs" textLength="227" x="26" y="164.6479">getOutputCompound()   : Set&lt;Relation&gt;</text><ellipse cx="17" cy="175.1445" fill="#84BE84" rx="3" ry="3" style="stroke: #038048; stroke-width: 1.0;"/><text fill="#000000" font-family="sans-serif" font-size="11" lengthAdjust="spacingAndGlyphs" textLength="196" x="26" y="177.4526">getPartOf()           : Set&lt;Relation&gt;</text><ellipse cx="17" cy="187.9492" fill="#84BE84" rx="3" ry="3" style="stroke: #038048; stroke-width: 1.0;"/><text fill="#000000" font-family="sans-serif" font-size="11" lengthAdjust="spacingAndGlyphs" textLength="290" x="26" y="190.2573">isPartOf( @NonNull final String id )          : boolean</text><ellipse cx="17" cy="200.7539" fill="#84BE84" rx="3" ry="3" style="stroke: #038048; stroke-width: 1.0;"/><text fill="#000000" font-family="sans-serif" font-size="11" lengthAdjust="spacingAndGlyphs" textLength="322" x="26" y="203.062">hasInputCompound( @NonNull final String id )  : boolean</text><ellipse cx="17" cy="213.5586" fill="#84BE84" rx="3" ry="3" style="stroke: #038048; stroke-width: 1.0;"/><text fill="#000000" font-family="sans-serif" font-size="11" lengthAdjust="spacingAndGlyphs" textLength="328" x="26" y="215.8667">hasOutputCompound( @NonNull final String id ) : boolean</text><ellipse cx="17" cy="226.3633" fill="#84BE84" rx="3" ry="3" style="stroke: #038048; stroke-width: 1.0;"/><text fill="#000000" font-family="sans-serif" font-size="11" lengthAdjust="spacingAndGlyphs" textLength="239" x="26" y="228.6714">toString()                                    : String</text></g></svg>