<?xml version="1.0" encoding="UTF-8" standalone="yes"?><svg xmlns="http://www.w3.org/2000/svg" xmlns:xlink="http://www.w3.org/1999/xlink" height="467pt" style="width:738px;height:467px;" version="1.1" viewBox="0 0 738 467" width="738pt"><defs><filter height="300%" id="f1" width="300%" x="-1" y="-1"><feGaussianBlur result="blurOut" stdDeviation="2.0"/><feColorMatrix in="blurOut" result="blurOut2" type="matrix" values="0 0 0 0 0 0 0 0 0 0 0 0 0 0 0 0 0 0 .4 0"/><feOffset dx="4.0" dy="4.0" in="blurOut2" result="blurOut3"/><feBlend in="SourceGraphic" in2="blurOut3" mode="normal"/></filter></defs><g><rect fill="#FEFECE" filter="url(#f1)" height="342.5078" style="stroke: #A80036; stroke-width: 1.5;" width="723" x="6" y="116"/><ellipse cx="318.75" cy="132" fill="#ADD1B2" rx="11" ry="11" style="stroke: #A80036; stroke-width: 1.0;"/><path d="M321.7188,137.6406 Q321.1406,137.9375 320.5,138.0859 Q319.8594,138.2344 319.1563,138.2344 Q316.6563,138.2344 315.3359,136.5859 Q314.0156,134.9375 314.0156,131.8125 Q314.0156,128.6875 315.3359,127.0313 Q316.6563,125.375 319.1563,125.375 Q319.8594,125.375 320.5078,125.5313 Q321.1563,125.6875 321.7188,125.9844 L321.7188,128.7031 Q321.0938,128.125 320.5,127.8516 Q319.9063,127.5781 319.2813,127.5781 Q317.9375,127.5781 317.25,128.6484 Q316.5625,129.7188 316.5625,131.8125 Q316.5625,133.9063 317.25,134.9766 Q317.9375,136.0469 319.2813,136.0469 Q319.9063,136.0469 320.5,135.7734 Q321.0938,135.5 321.7188,134.9219 L321.7188,137.6406 Z "/><text fill="#000000" font-family="sans-serif" font-size="12" lengthAdjust="spacingAndGlyphs" textLength="89" x="339.25" y="136.1543">TermRelations</text><line style="stroke: #A80036; stroke-width: 1.5;" x1="7" x2="728" y1="148" y2="148"/><ellipse cx="17.5" cy="157.3047" fill="#000000" rx="2.5" ry="2.5" style="stroke: #000000; stroke-width: 0.0;"/><text fill="#000000" font-family="sans-serif" font-size="11" lengthAdjust="spacingAndGlyphs" textLength="130" x="21" y="162.2104">relations     : Relations</text><ellipse cx="17.5" cy="170.1094" fill="#000000" rx="2.5" ry="2.5" style="stroke: #000000; stroke-width: 0.0;"/><text fill="#000000" font-family="sans-serif" font-size="11" lengthAdjust="spacingAndGlyphs" textLength="191" x="21" y="175.0151">children        : List&lt;List&lt;Term&gt;&gt;</text><line style="stroke: #A80036; stroke-width: 1.5;" x1="7" x2="728" y1="181.6094" y2="181.6094"/><ellipse cx="17" cy="193.5117" fill="#84BE84" rx="3" ry="3" style="stroke: #038048; stroke-width: 1.0;"/><text fill="#000000" font-family="sans-serif" font-size="11" lengthAdjust="spacingAndGlyphs" textLength="697" x="26" y="195.8198">TermRelations( @NonNull final String id, @NonNull final String name, @NonNull final String definition, Relations relations )</text><ellipse cx="17" cy="206.3164" fill="#84BE84" rx="3" ry="3" style="stroke: #038048; stroke-width: 1.0;"/><text fill="#000000" font-family="sans-serif" font-size="11" lengthAdjust="spacingAndGlyphs" textLength="583" x="26" y="208.6245">TermRelations( @NonNull final String id, @NonNull final String name, @NonNull final String definition )</text><ellipse cx="17" cy="219.1211" fill="#84BE84" rx="3" ry="3" style="stroke: #038048; stroke-width: 1.0;"/><text fill="#000000" font-family="sans-serif" font-size="11" lengthAdjust="spacingAndGlyphs" textLength="266" x="26" y="221.4292">getRelations()                                : Relations</text><ellipse cx="17" cy="231.9258" fill="#84BE84" rx="3" ry="3" style="stroke: #038048; stroke-width: 1.0;"/><text fill="#000000" font-family="sans-serif" font-size="11" lengthAdjust="spacingAndGlyphs" textLength="315" x="26" y="234.2339">getRelation( final String type )              : Set&lt;Relation&gt;</text><ellipse cx="17" cy="244.7305" fill="#84BE84" rx="3" ry="3" style="stroke: #038048; stroke-width: 1.0;"/><text fill="#000000" font-family="sans-serif" font-size="11" lengthAdjust="spacingAndGlyphs" textLength="290" x="26" y="247.0386">isPartOf( @NonNull final String id )          : boolean</text><ellipse cx="17" cy="257.5352" fill="#84BE84" rx="3" ry="3" style="stroke: #038048; stroke-width: 1.0;"/><text fill="#000000" font-family="sans-serif" font-size="11" lengthAdjust="spacingAndGlyphs" textLength="322" x="26" y="259.8433">hasInputCompound(@NonNull final String id )   : boolean</text><ellipse cx="17" cy="270.3398" fill="#84BE84" rx="3" ry="3" style="stroke: #038048; stroke-width: 1.0;"/><text fill="#000000" font-family="sans-serif" font-size="11" lengthAdjust="spacingAndGlyphs" textLength="335" x="26" y="272.6479">hasInputCompound(@NonNull final Term term )   : boolean</text><ellipse cx="17" cy="283.1445" fill="#84BE84" rx="3" ry="3" style="stroke: #038048; stroke-width: 1.0;"/><text fill="#000000" font-family="sans-serif" font-size="11" lengthAdjust="spacingAndGlyphs" textLength="328" x="26" y="285.4526">hasOutputCompound(@NonNull final String id )  : boolean</text><ellipse cx="17" cy="295.9492" fill="#84BE84" rx="3" ry="3" style="stroke: #038048; stroke-width: 1.0;"/><text fill="#000000" font-family="sans-serif" font-size="11" lengthAdjust="spacingAndGlyphs" textLength="341" x="26" y="298.2573">hasOutputCompound(@NonNull final Term term )  : boolean</text><ellipse cx="17" cy="308.7539" fill="#84BE84" rx="3" ry="3" style="stroke: #038048; stroke-width: 1.0;"/><text fill="#000000" font-family="sans-serif" font-size="11" lengthAdjust="spacingAndGlyphs" textLength="509" x="26" y="311.062">hasAtLeastOneCommonOutputCompound( @NonNull final TermRelations term ) : boolean</text><ellipse cx="17" cy="321.5586" fill="#84BE84" rx="3" ry="3" style="stroke: #038048; stroke-width: 1.0;"/><text fill="#000000" font-family="sans-serif" font-size="11" lengthAdjust="spacingAndGlyphs" textLength="499" x="26" y="323.8667">hasAtLeastOneCommonInputCompound( @NonNull final TermRelations term ) : boolean</text><ellipse cx="17" cy="334.3633" fill="#84BE84" rx="3" ry="3" style="stroke: #038048; stroke-width: 1.0;"/><text fill="#000000" font-family="sans-serif" font-size="11" lengthAdjust="spacingAndGlyphs" textLength="340" x="26" y="336.6714">isVariantOf( @NonNull final TermRelations term )  : boolean</text><ellipse cx="17" cy="347.168" fill="#84BE84" rx="3" ry="3" style="stroke: #038048; stroke-width: 1.0;"/><text fill="#000000" font-family="sans-serif" font-size="11" lengthAdjust="spacingAndGlyphs" textLength="314" x="26" y="349.4761">isAfter( @NonNull final TermRelations term )  : boolean</text><ellipse cx="17" cy="359.9727" fill="#84BE84" rx="3" ry="3" style="stroke: #038048; stroke-width: 1.0;"/><text fill="#000000" font-family="sans-serif" font-size="11" lengthAdjust="spacingAndGlyphs" textLength="321" x="26" y="362.2808">isBefore( @NonNull final TermRelations term ) : boolean</text><ellipse cx="17" cy="372.7773" fill="#84BE84" rx="3" ry="3" style="stroke: #038048; stroke-width: 1.0;"/><text fill="#000000" font-family="sans-serif" font-size="11" lengthAdjust="spacingAndGlyphs" textLength="319" x="26" y="375.0854">isLinked( @NonNull final TermRelations term ) : boolean</text><ellipse cx="17" cy="385.582" fill="#84BE84" rx="3" ry="3" style="stroke: #038048; stroke-width: 1.0;"/><text fill="#000000" font-family="sans-serif" font-size="11" lengthAdjust="spacingAndGlyphs" textLength="276" x="26" y="387.8901">add( @NonNull final Term term )               : void</text><ellipse cx="17" cy="398.3867" fill="#84BE84" rx="3" ry="3" style="stroke: #038048; stroke-width: 1.0;"/><text fill="#000000" font-family="sans-serif" font-size="11" lengthAdjust="spacingAndGlyphs" textLength="320" x="26" y="400.6948">addAll( @NonNull final List&lt;List&lt;Term&gt;&gt; terms )  : void</text><ellipse cx="17" cy="411.1914" fill="#84BE84" rx="3" ry="3" style="stroke: #038048; stroke-width: 1.0;"/><text fill="#000000" font-family="sans-serif" font-size="11" lengthAdjust="spacingAndGlyphs" textLength="282" x="26" y="413.4995">get( final int index )                        : List&lt;Term&gt;</text><ellipse cx="17" cy="423.9961" fill="#84BE84" rx="3" ry="3" style="stroke: #038048; stroke-width: 1.0;"/><text fill="#000000" font-family="sans-serif" font-size="11" lengthAdjust="spacingAndGlyphs" textLength="330" x="26" y="426.3042">iterator()                                    : Iterator&lt;List&lt;Term&gt;&gt;</text><ellipse cx="17" cy="436.8008" fill="#84BE84" rx="3" ry="3" style="stroke: #038048; stroke-width: 1.0;"/><text fill="#000000" font-family="sans-serif" font-size="11" lengthAdjust="spacingAndGlyphs" textLength="327" x="26" y="439.1089">getChildren()                                   : List&lt;List&lt;Term&gt;&gt;</text><ellipse cx="17" cy="449.6055" fill="#84BE84" rx="3" ry="3" style="stroke: #038048; stroke-width: 1.0;"/><text fill="#000000" font-family="sans-serif" font-size="11" lengthAdjust="spacingAndGlyphs" textLength="239" x="26" y="451.9136">toString()                                    : String</text><rect fill="#FEFECE" filter="url(#f1)" height="48" style="stroke: #A80036; stroke-width: 1.5;" width="63" x="336" y="8"/><ellipse cx="351" cy="24" fill="#ADD1B2" rx="11" ry="11" style="stroke: #A80036; stroke-width: 1.0;"/><path d="M353.9688,29.6406 Q353.3906,29.9375 352.75,30.0859 Q352.1094,30.2344 351.4063,30.2344 Q348.9063,30.2344 347.5859,28.5859 Q346.2656,26.9375 346.2656,23.8125 Q346.2656,20.6875 347.5859,19.0313 Q348.9063,17.375 351.4063,17.375 Q352.1094,17.375 352.7578,17.5313 Q353.4063,17.6875 353.9688,17.9844 L353.9688,20.7031 Q353.3438,20.125 352.75,19.8516 Q352.1563,19.5781 351.5313,19.5781 Q350.1875,19.5781 349.5,20.6484 Q348.8125,21.7188 348.8125,23.8125 Q348.8125,25.9063 349.5,26.9766 Q350.1875,28.0469 351.5313,28.0469 Q352.1563,28.0469 352.75,27.7734 Q353.3438,27.5 353.9688,26.9219 L353.9688,29.6406 Z "/><text fill="#000000" font-family="sans-serif" font-size="12" lengthAdjust="spacingAndGlyphs" textLength="31" x="365" y="28.1543">Term</text><line style="stroke: #A80036; stroke-width: 1.5;" x1="337" x2="398" y1="40" y2="40"/><line style="stroke: #A80036; stroke-width: 1.5;" x1="337" x2="398" y1="48" y2="48"/><path d="M367.5,76.6 C367.5,88.31 367.5,101.715 367.5,115.962 " fill="none" style="stroke: #A80036; stroke-width: 1.0;"/><polygon fill="none" points="360.5,76.394,367.5,56.394,374.5,76.394,360.5,76.394" style="stroke: #A80036; stroke-width: 1.0;"/></g></svg>