<?xml version="1.0" encoding="UTF-8" standalone="yes"?><svg xmlns="http://www.w3.org/2000/svg" xmlns:xlink="http://www.w3.org/1999/xlink" height="185pt" style="width:687px;height:185px;" version="1.1" viewBox="0 0 687 185" width="687pt"><defs><filter height="300%" id="f1" width="300%" x="-1" y="-1"><feGaussianBlur result="blurOut" stdDeviation="2.0"/><feColorMatrix in="blurOut" result="blurOut2" type="matrix" values="0 0 0 0 0 0 0 0 0 0 0 0 0 0 0 0 0 0 .4 0"/><feOffset dx="4.0" dy="4.0" in="blurOut2" result="blurOut3"/><feBlend in="SourceGraphic" in2="blurOut3" mode="normal"/></filter></defs><g><rect fill="#FEFECE" filter="url(#f1)" height="60.8047" style="stroke: #A80036; stroke-width: 1.5;" width="672" x="6" y="116"/><ellipse cx="325.25" cy="132" fill="#ADD1B2" rx="11" ry="11" style="stroke: #A80036; stroke-width: 1.0;"/><path d="M328.2188,137.6406 Q327.6406,137.9375 327,138.0859 Q326.3594,138.2344 325.6563,138.2344 Q323.1563,138.2344 321.8359,136.5859 Q320.5156,134.9375 320.5156,131.8125 Q320.5156,128.6875 321.8359,127.0313 Q323.1563,125.375 325.6563,125.375 Q326.3594,125.375 327.0078,125.5313 Q327.6563,125.6875 328.2188,125.9844 L328.2188,128.7031 Q327.5938,128.125 327,127.8516 Q326.4063,127.5781 325.7813,127.5781 Q324.4375,127.5781 323.75,128.6484 Q323.0625,129.7188 323.0625,131.8125 Q323.0625,133.9063 323.75,134.9766 Q324.4375,136.0469 325.7813,136.0469 Q326.4063,136.0469 327,135.7734 Q327.5938,135.5 328.2188,134.9219 L328.2188,137.6406 Z "/><text fill="#000000" font-family="sans-serif" font-size="12" lengthAdjust="spacingAndGlyphs" textLength="25" x="345.75" y="136.1543">UCR</text><line style="stroke: #A80036; stroke-width: 1.5;" x1="7" x2="677" y1="148" y2="148"/><line style="stroke: #A80036; stroke-width: 1.5;" x1="7" x2="677" y1="156" y2="156"/><ellipse cx="17.5" cy="165.3047" fill="#000000" rx="2.5" ry="2.5" style="stroke: #000000; stroke-width: 0.0;"/><text fill="#000000" font-family="sans-serif" font-size="11" lengthAdjust="spacingAndGlyphs" textLength="651" x="21" y="170.2104">+ UCR( @NonNull final String id, @NonNull final String name, @NonNull final String definition, Relations relations )</text><rect fill="#FEFECE" filter="url(#f1)" height="48" style="stroke: #A80036; stroke-width: 1.5;" width="121" x="281.5" y="8"/><ellipse cx="296.5" cy="24" fill="#ADD1B2" rx="11" ry="11" style="stroke: #A80036; stroke-width: 1.0;"/><path d="M299.4688,29.6406 Q298.8906,29.9375 298.25,30.0859 Q297.6094,30.2344 296.9063,30.2344 Q294.4063,30.2344 293.0859,28.5859 Q291.7656,26.9375 291.7656,23.8125 Q291.7656,20.6875 293.0859,19.0313 Q294.4063,17.375 296.9063,17.375 Q297.6094,17.375 298.2578,17.5313 Q298.9063,17.6875 299.4688,17.9844 L299.4688,20.7031 Q298.8438,20.125 298.25,19.8516 Q297.6563,19.5781 297.0313,19.5781 Q295.6875,19.5781 295,20.6484 Q294.3125,21.7188 294.3125,23.8125 Q294.3125,25.9063 295,26.9766 Q295.6875,28.0469 297.0313,28.0469 Q297.6563,28.0469 298.25,27.7734 Q298.8438,27.5 299.4688,26.9219 L299.4688,29.6406 Z "/><text fill="#000000" font-family="sans-serif" font-size="12" lengthAdjust="spacingAndGlyphs" textLength="89" x="310.5" y="28.1543">TermRelations</text><line style="stroke: #A80036; stroke-width: 1.5;" x1="282.5" x2="401.5" y1="40" y2="40"/><line style="stroke: #A80036; stroke-width: 1.5;" x1="282.5" x2="401.5" y1="48" y2="48"/><path d="M342,76.109 C342,89.3115 342,103.5368 342,115.6497 " fill="none" style="stroke: #A80036; stroke-width: 1.0;"/><polygon fill="none" points="335,76.038,342,56.038,349,76.037,335,76.038" style="stroke: #A80036; stroke-width: 1.0;"/></g></svg>