<?xml version="1.0" encoding="UTF-8" standalone="yes"?><svg xmlns="http://www.w3.org/2000/svg" xmlns:xlink="http://www.w3.org/1999/xlink" height="185pt" style="width:686px;height:185px;" version="1.1" viewBox="0 0 686 185" width="686pt"><defs><filter height="300%" id="f1" width="300%" x="-1" y="-1"><feGaussianBlur result="blurOut" stdDeviation="2.0"/><feColorMatrix in="blurOut" result="blurOut2" type="matrix" values="0 0 0 0 0 0 0 0 0 0 0 0 0 0 0 0 0 0 .4 0"/><feOffset dx="4.0" dy="4.0" in="blurOut2" result="blurOut3"/><feBlend in="SourceGraphic" in2="blurOut3" mode="normal"/></filter></defs><g><rect fill="#FEFECE" filter="url(#f1)" height="60.8047" style="stroke: #A80036; stroke-width: 1.5;" width="671" x="6" y="116"/><ellipse cx="324.75" cy="132" fill="#ADD1B2" rx="11" ry="11" style="stroke: #A80036; stroke-width: 1.0;"/><path d="M327.7188,137.6406 Q327.1406,137.9375 326.5,138.0859 Q325.8594,138.2344 325.1563,138.2344 Q322.6563,138.2344 321.3359,136.5859 Q320.0156,134.9375 320.0156,131.8125 Q320.0156,128.6875 321.3359,127.0313 Q322.6563,125.375 325.1563,125.375 Q325.8594,125.375 326.5078,125.5313 Q327.1563,125.6875 327.7188,125.9844 L327.7188,128.7031 Q327.0938,128.125 326.5,127.8516 Q325.9063,127.5781 325.2813,127.5781 Q323.9375,127.5781 323.25,128.6484 Q322.5625,129.7188 322.5625,131.8125 Q322.5625,133.9063 323.25,134.9766 Q323.9375,136.0469 325.2813,136.0469 Q325.9063,136.0469 326.5,135.7734 Q327.0938,135.5 327.7188,134.9219 L327.7188,137.6406 Z "/><text fill="#000000" font-family="sans-serif" font-size="12" lengthAdjust="spacingAndGlyphs" textLength="25" x="345.25" y="136.1543">UER</text><line style="stroke: #A80036; stroke-width: 1.5;" x1="7" x2="676" y1="148" y2="148"/><line style="stroke: #A80036; stroke-width: 1.5;" x1="7" x2="676" y1="156" y2="156"/><ellipse cx="17.5" cy="165.3047" fill="#000000" rx="2.5" ry="2.5" style="stroke: #000000; stroke-width: 0.0;"/><text fill="#000000" font-family="sans-serif" font-size="11" lengthAdjust="spacingAndGlyphs" textLength="650" x="21" y="170.2104">+ UER( @NonNull final String id, @NonNull final String name, @NonNull final String definition, Relations relations )</text><rect fill="#FEFECE" filter="url(#f1)" height="48" style="stroke: #A80036; stroke-width: 1.5;" width="121" x="281" y="8"/><ellipse cx="296" cy="24" fill="#ADD1B2" rx="11" ry="11" style="stroke: #A80036; stroke-width: 1.0;"/><path d="M298.9688,29.6406 Q298.3906,29.9375 297.75,30.0859 Q297.1094,30.2344 296.4063,30.2344 Q293.9063,30.2344 292.5859,28.5859 Q291.2656,26.9375 291.2656,23.8125 Q291.2656,20.6875 292.5859,19.0313 Q293.9063,17.375 296.4063,17.375 Q297.1094,17.375 297.7578,17.5313 Q298.4063,17.6875 298.9688,17.9844 L298.9688,20.7031 Q298.3438,20.125 297.75,19.8516 Q297.1563,19.5781 296.5313,19.5781 Q295.1875,19.5781 294.5,20.6484 Q293.8125,21.7188 293.8125,23.8125 Q293.8125,25.9063 294.5,26.9766 Q295.1875,28.0469 296.5313,28.0469 Q297.1563,28.0469 297.75,27.7734 Q298.3438,27.5 298.9688,26.9219 L298.9688,29.6406 Z "/><text fill="#000000" font-family="sans-serif" font-size="12" lengthAdjust="spacingAndGlyphs" textLength="89" x="310" y="28.1543">TermRelations</text><line style="stroke: #A80036; stroke-width: 1.5;" x1="282" x2="401" y1="40" y2="40"/><line style="stroke: #A80036; stroke-width: 1.5;" x1="282" x2="401" y1="48" y2="48"/><path d="M341.5,76.109 C341.5,89.3115 341.5,103.5368 341.5,115.6497 " fill="none" style="stroke: #A80036; stroke-width: 1.0;"/><polygon fill="none" points="334.5,76.038,341.5,56.038,348.5,76.037,334.5,76.038" style="stroke: #A80036; stroke-width: 1.0;"/></g></svg>