<?xml version="1.0" encoding="UTF-8" standalone="yes"?><svg xmlns="http://www.w3.org/2000/svg" xmlns:xlink="http://www.w3.org/1999/xlink" height="129pt" style="width:438px;height:129px;" version="1.1" viewBox="0 0 438 129" width="438pt"><defs><filter height="300%" id="f1" width="300%" x="-1" y="-1"><feGaussianBlur result="blurOut" stdDeviation="2.0"/><feColorMatrix in="blurOut" result="blurOut2" type="matrix" values="0 0 0 0 0 0 0 0 0 0 0 0 0 0 0 0 0 0 .4 0"/><feOffset dx="4.0" dy="4.0" in="blurOut2" result="blurOut3"/><feBlend in="SourceGraphic" in2="blurOut3" mode="normal"/></filter></defs><g><rect fill="#FEFECE" filter="url(#f1)" height="112.0234" style="stroke: #A80036; stroke-width: 1.5;" width="423" x="6" y="8"/><ellipse cx="164.75" cy="24" fill="#ADD1B2" rx="11" ry="11" style="stroke: #A80036; stroke-width: 1.0;"/><path d="M167.7188,29.6406 Q167.1406,29.9375 166.5,30.0859 Q165.8594,30.2344 165.1563,30.2344 Q162.6563,30.2344 161.3359,28.5859 Q160.0156,26.9375 160.0156,23.8125 Q160.0156,20.6875 161.3359,19.0313 Q162.6563,17.375 165.1563,17.375 Q165.8594,17.375 166.5078,17.5313 Q167.1563,17.6875 167.7188,17.9844 L167.7188,20.7031 Q167.0938,20.125 166.5,19.8516 Q165.9063,19.5781 165.2813,19.5781 Q163.9375,19.5781 163.25,20.6484 Q162.5625,21.7188 162.5625,23.8125 Q162.5625,25.9063 163.25,26.9766 Q163.9375,28.0469 165.2813,28.0469 Q165.9063,28.0469 166.5,27.7734 Q167.0938,27.5 167.7188,26.9219 L167.7188,29.6406 Z "/><text fill="#000000" font-family="sans-serif" font-size="12" lengthAdjust="spacingAndGlyphs" textLength="97" x="185.25" y="28.1543">UnipathwayUnit</text><line style="stroke: #A80036; stroke-width: 1.5;" x1="7" x2="428" y1="40" y2="40"/><rect fill="none" height="6" style="stroke: #C82930; stroke-width: 1.0;" width="6" x="14" y="48.9023"/><text fill="#000000" font-family="sans-serif" font-size="11" lengthAdjust="spacingAndGlyphs" text-decoration="underline" textLength="221" x="26" y="54.2104">units :  List&lt;Class&lt;? extends Term&gt;&gt;</text><rect fill="none" height="6" style="stroke: #C82930; stroke-width: 1.0;" width="6" x="14" y="61.707"/><text fill="#000000" font-family="sans-serif" font-size="11" lengthAdjust="spacingAndGlyphs" textLength="63" x="26" y="67.0151">unit : Term</text><line style="stroke: #A80036; stroke-width: 1.5;" x1="7" x2="428" y1="73.6094" y2="73.6094"/><ellipse cx="17" cy="85.5117" fill="#84BE84" rx="3" ry="3" style="stroke: #038048; stroke-width: 1.0;"/><text fill="#000000" font-family="sans-serif" font-size="11" lengthAdjust="spacingAndGlyphs" textLength="247" x="26" y="87.8198">UnipathwayUnit( @NonNull final Term term)</text><ellipse cx="17" cy="98.3164" fill="#84BE84" rx="3" ry="3" style="stroke: #038048; stroke-width: 1.0;"/><text fill="#000000" font-family="sans-serif" font-size="11" lengthAdjust="spacingAndGlyphs" textLength="390" x="26" y="100.6245">isAfter( @NonNull final Class&lt;? extends Term&gt; termType) : boolean</text><ellipse cx="17" cy="111.1211" fill="#84BE84" rx="3" ry="3" style="stroke: #038048; stroke-width: 1.0;"/><text fill="#000000" font-family="sans-serif" font-size="11" lengthAdjust="spacingAndGlyphs" textLength="397" x="26" y="113.4292">isBefore( @NonNull final Class&lt;? extends Term&gt; termType): boolean</text></g></svg>