<?xml version="1.0" encoding="UTF-8" standalone="yes"?><svg xmlns="http://www.w3.org/2000/svg" xmlns:xlink="http://www.w3.org/1999/xlink" height="269pt" style="width:675px;height:269px;" version="1.1" viewBox="0 0 675 269" width="675pt"><defs><filter height="300%" id="f1" width="300%" x="-1" y="-1"><feGaussianBlur result="blurOut" stdDeviation="2.0"/><feColorMatrix in="blurOut" result="blurOut2" type="matrix" values="0 0 0 0 0 0 0 0 0 0 0 0 0 0 0 0 0 0 .4 0"/><feOffset dx="4.0" dy="4.0" in="blurOut2" result="blurOut3"/><feBlend in="SourceGraphic" in2="blurOut3" mode="normal"/></filter></defs><g><rect fill="#FEFECE" filter="url(#f1)" height="252.7891" style="stroke: #A80036; stroke-width: 1.5;" width="660" x="6" y="8"/><ellipse cx="301.25" cy="24" fill="#ADD1B2" rx="11" ry="11" style="stroke: #A80036; stroke-width: 1.0;"/><path d="M305.0781,29.6563 Q303.2031,30.3125 301.3906,30.3125 Q298.7969,30.3125 297.2109,28.5313 Q295.625,26.75 295.625,23.8438 Q295.625,21.1563 297.0313,19.3906 Q297.8906,18.3125 299.0078,17.8594 Q300.125,17.4063 301.9063,17.4063 Q303.625,17.4063 305.0781,17.7656 L305.0781,19.75 Q303.2031,19.0469 301.9531,19.0469 Q300.2656,19.0469 299.2734,20.3672 Q298.2813,21.6875 298.2813,23.9219 Q298.2813,25.9688 299.3203,27.2656 Q300.3594,28.5625 302,28.5625 Q303.3906,28.5625 305.0781,27.7813 L305.0781,29.6563 Z "/><text fill="#000000" font-family="sans-serif" font-size="12" lengthAdjust="spacingAndGlyphs" textLength="61" x="321.75" y="28.4209">Cardinality</text><line style="stroke: #A80036; stroke-width: 1.5;" x1="7" x2="665" y1="40" y2="40"/><rect fill="none" height="6" style="stroke: #C82930; stroke-width: 1.0;" width="6" x="14" y="48.8997"/><text fill="#000000" font-family="sans-serif" font-size="11" lengthAdjust="spacingAndGlyphs" textLength="152" x="26" y="54.4521">number                        : String</text><rect fill="none" height="6" style="stroke: #C82930; stroke-width: 1.0;" width="6" x="14" y="61.699"/><text fill="#000000" font-family="sans-serif" font-size="11" lengthAdjust="spacingAndGlyphs" textLength="143" x="26" y="67.2515">order                         : String</text><rect fill="none" height="6" style="stroke: #C82930; stroke-width: 1.0;" width="6" x="14" y="74.4983"/><text fill="#000000" font-family="sans-serif" font-size="11" lengthAdjust="spacingAndGlyphs" textLength="165" x="26" y="80.0508">is_primary                    : Boolean</text><rect fill="none" height="6" style="stroke: #C82930; stroke-width: 1.0;" width="6" x="14" y="87.2976"/><text fill="#000000" font-family="sans-serif" font-size="11" lengthAdjust="spacingAndGlyphs" textLength="164" x="26" y="92.8501">is_alternate                  : Boolean</text><rect fill="none" height="6" style="stroke: #C82930; stroke-width: 1.0;" width="6" x="14" y="100.0969"/><text fill="#000000" font-family="sans-serif" font-size="11" lengthAdjust="spacingAndGlyphs" textLength="149" x="26" y="105.6494">direction                     : String</text><line style="stroke: #A80036; stroke-width: 1.5;" x1="7" x2="665" y1="111.9966" y2="111.9966"/><ellipse cx="17" cy="123.8962" fill="#84BE84" rx="3" ry="3" style="stroke: #038048; stroke-width: 1.0;"/><text fill="#000000" font-family="sans-serif" font-size="11" lengthAdjust="spacingAndGlyphs" textLength="634" x="26" y="126.4487">Cardinality( final String number, final String order, final String direction, final Boolean is_primary, Boolean is_alternate )</text><ellipse cx="17" cy="136.6956" fill="#84BE84" rx="3" ry="3" style="stroke: #038048; stroke-width: 1.0;"/><text fill="#000000" font-family="sans-serif" font-size="11" lengthAdjust="spacingAndGlyphs" textLength="227" x="26" y="139.248">Cardinality( @NotNull final String number )</text><ellipse cx="17" cy="149.4949" fill="#84BE84" rx="3" ry="3" style="stroke: #038048; stroke-width: 1.0;"/><text fill="#000000" font-family="sans-serif" font-size="11" lengthAdjust="spacingAndGlyphs" textLength="272" x="26" y="152.0474">Cardinality( final String number, final String order )</text><ellipse cx="17" cy="162.2942" fill="#84BE84" rx="3" ry="3" style="stroke: #038048; stroke-width: 1.0;"/><text fill="#000000" font-family="sans-serif" font-size="11" lengthAdjust="spacingAndGlyphs" textLength="160" x="26" y="164.8467">getDirection()                : String</text><ellipse cx="17" cy="175.0935" fill="#84BE84" rx="3" ry="3" style="stroke: #038048; stroke-width: 1.0;"/><text fill="#000000" font-family="sans-serif" font-size="11" lengthAdjust="spacingAndGlyphs" textLength="163" x="26" y="177.646">getNumber()                   : String</text><ellipse cx="17" cy="187.8928" fill="#84BE84" rx="3" ry="3" style="stroke: #038048; stroke-width: 1.0;"/><text fill="#000000" font-family="sans-serif" font-size="11" lengthAdjust="spacingAndGlyphs" textLength="155" x="26" y="190.4453">getOrder()                    : String</text><ellipse cx="17" cy="200.6921" fill="#84BE84" rx="3" ry="3" style="stroke: #038048; stroke-width: 1.0;"/><text fill="#000000" font-family="sans-serif" font-size="11" lengthAdjust="spacingAndGlyphs" textLength="175" x="26" y="203.2446">getIs_primary()               : Boolean</text><ellipse cx="17" cy="213.4915" fill="#84BE84" rx="3" ry="3" style="stroke: #038048; stroke-width: 1.0;"/><text fill="#000000" font-family="sans-serif" font-size="11" lengthAdjust="spacingAndGlyphs" textLength="174" x="26" y="216.0439">getIs_alternate()             : Boolean</text><ellipse cx="17" cy="226.2908" fill="#84BE84" rx="3" ry="3" style="stroke: #038048; stroke-width: 1.0;"/><text fill="#000000" font-family="sans-serif" font-size="11" lengthAdjust="spacingAndGlyphs" textLength="149" x="26" y="228.8433">toString()                    : String</text><ellipse cx="17" cy="239.0901" fill="#84BE84" rx="3" ry="3" style="stroke: #038048; stroke-width: 1.0;"/><text fill="#000000" font-family="sans-serif" font-size="11" lengthAdjust="spacingAndGlyphs" textLength="191" x="26" y="241.6426">equals( final Object obj )    : boolean</text><ellipse cx="17" cy="251.8894" fill="#84BE84" rx="3" ry="3" style="stroke: #038048; stroke-width: 1.0;"/><text fill="#000000" font-family="sans-serif" font-size="11" lengthAdjust="spacingAndGlyphs" textLength="142" x="26" y="254.4419">hashCode()                    : int</text></g></svg>