<?xml version="1.0" encoding="UTF-8" standalone="yes"?><svg xmlns="http://www.w3.org/2000/svg" xmlns:xlink="http://www.w3.org/1999/xlink" height="244pt" style="width:643px;height:244px;" version="1.1" viewBox="0 0 643 244" width="643pt"><defs><filter height="300%" id="f1" width="300%" x="-1" y="-1"><feGaussianBlur result="blurOut" stdDeviation="2.0"/><feColorMatrix in="blurOut" result="blurOut2" type="matrix" values="0 0 0 0 0 0 0 0 0 0 0 0 0 0 0 0 0 0 .4 0"/><feOffset dx="4.0" dy="4.0" in="blurOut2" result="blurOut3"/><feBlend in="SourceGraphic" in2="blurOut3" mode="normal"/></filter></defs><g><rect fill="#FEFECE" filter="url(#f1)" height="227.1904" style="stroke: #A80036; stroke-width: 1.5;" width="628" x="6" y="8"/><ellipse cx="289.75" cy="24" fill="#ADD1B2" rx="11" ry="11" style="stroke: #A80036; stroke-width: 1.0;"/><path d="M293.5781,29.6563 Q291.7031,30.3125 289.8906,30.3125 Q287.2969,30.3125 285.7109,28.5313 Q284.125,26.75 284.125,23.8438 Q284.125,21.1563 285.5313,19.3906 Q286.3906,18.3125 287.5078,17.8594 Q288.625,17.4063 290.4063,17.4063 Q292.125,17.4063 293.5781,17.7656 L293.5781,19.75 Q291.7031,19.0469 290.4531,19.0469 Q288.7656,19.0469 287.7734,20.3672 Q286.7813,21.6875 286.7813,23.9219 Q286.7813,25.9688 287.8203,27.2656 Q288.8594,28.5625 290.5,28.5625 Q291.8906,28.5625 293.5781,27.7813 L293.5781,29.6563 Z "/><text fill="#000000" font-family="sans-serif" font-size="12" lengthAdjust="spacingAndGlyphs" textLength="52" x="310.25" y="28.4209">Relations</text><line style="stroke: #A80036; stroke-width: 1.5;" x1="7" x2="633" y1="40" y2="40"/><rect fill="none" height="6" style="stroke: #C82930; stroke-width: 1.0;" width="6" x="14" y="48.8997"/><text fill="#000000" font-family="sans-serif" font-size="11" lengthAdjust="spacingAndGlyphs" textLength="187" x="26" y="54.4521">input_compound    : Set&lt;Relation&gt;</text><rect fill="none" height="6" style="stroke: #C82930; stroke-width: 1.0;" width="6" x="14" y="61.699"/><text fill="#000000" font-family="sans-serif" font-size="11" lengthAdjust="spacingAndGlyphs" textLength="192" x="26" y="67.2515">output_compound   : Set&lt;Relation&gt;</text><rect fill="none" height="6" style="stroke: #C82930; stroke-width: 1.0;" width="6" x="14" y="74.4983"/><text fill="#000000" font-family="sans-serif" font-size="11" lengthAdjust="spacingAndGlyphs" textLength="155" x="26" y="80.0508">part_of           : Set&lt;Relation&gt;</text><line style="stroke: #A80036; stroke-width: 1.5;" x1="7" x2="633" y1="86.3979" y2="86.3979"/><rect fill="#F24D5C" height="6" style="stroke: #C82930; stroke-width: 1.0;" width="6" x="14" y="95.2976"/><text fill="#000000" font-family="sans-serif" font-size="11" lengthAdjust="spacingAndGlyphs" textLength="485" x="26" y="100.8501">hasCompound( @NonNull final Set&lt;Relation&gt; relations, @NonNull final String id ) : boolean</text><rect fill="#F24D5C" height="6" style="stroke: #C82930; stroke-width: 1.0;" width="6" x="14" y="108.0969"/><text fill="#000000" font-family="sans-serif" font-size="11" lengthAdjust="spacingAndGlyphs" textLength="602" x="26" y="113.6494">hasCompound( @NonNull final Set&lt;Relation&gt; relations, @NonNull final String id, final boolean isLeftId ) : boolean</text><ellipse cx="17" cy="123.8962" fill="#84BE84" rx="3" ry="3" style="stroke: #038048; stroke-width: 1.0;"/><text fill="#000000" font-family="sans-serif" font-size="11" lengthAdjust="spacingAndGlyphs" textLength="490" x="26" y="126.4487">Relations(final Set&lt;Relation&gt; input, final Set&lt;Relation&gt; output, final Set&lt;Relation&gt; part_of)</text><ellipse cx="17" cy="136.6956" fill="#84BE84" rx="3" ry="3" style="stroke: #038048; stroke-width: 1.0;"/><text fill="#000000" font-family="sans-serif" font-size="11" lengthAdjust="spacingAndGlyphs" textLength="57" x="26" y="139.248">Relations()</text><ellipse cx="17" cy="149.4949" fill="#84BE84" rx="3" ry="3" style="stroke: #038048; stroke-width: 1.0;"/><text fill="#000000" font-family="sans-serif" font-size="11" lengthAdjust="spacingAndGlyphs" textLength="208" x="26" y="152.0474">getInputCompound()    : Set&lt;Relation&gt;</text><ellipse cx="17" cy="162.2942" fill="#84BE84" rx="3" ry="3" style="stroke: #038048; stroke-width: 1.0;"/><text fill="#000000" font-family="sans-serif" font-size="11" lengthAdjust="spacingAndGlyphs" textLength="215" x="26" y="164.8467">getOutputCompound()   : Set&lt;Relation&gt;</text><ellipse cx="17" cy="175.0935" fill="#84BE84" rx="3" ry="3" style="stroke: #038048; stroke-width: 1.0;"/><text fill="#000000" font-family="sans-serif" font-size="11" lengthAdjust="spacingAndGlyphs" textLength="175" x="26" y="177.646">getPartOf()           : Set&lt;Relation&gt;</text><ellipse cx="17" cy="187.8928" fill="#84BE84" rx="3" ry="3" style="stroke: #038048; stroke-width: 1.0;"/><text fill="#000000" font-family="sans-serif" font-size="11" lengthAdjust="spacingAndGlyphs" textLength="262" x="26" y="190.4453">isPartOf( @NonNull final String id )          : boolean</text><ellipse cx="17" cy="200.6921" fill="#84BE84" rx="3" ry="3" style="stroke: #038048; stroke-width: 1.0;"/><text fill="#000000" font-family="sans-serif" font-size="11" lengthAdjust="spacingAndGlyphs" textLength="302" x="26" y="203.2446">hasInputCompound( @NonNull final String id )  : boolean</text><ellipse cx="17" cy="213.4915" fill="#84BE84" rx="3" ry="3" style="stroke: #038048; stroke-width: 1.0;"/><text fill="#000000" font-family="sans-serif" font-size="11" lengthAdjust="spacingAndGlyphs" textLength="309" x="26" y="216.0439">hasOutputCompound( @NonNull final String id ) : boolean</text><ellipse cx="17" cy="226.2908" fill="#84BE84" rx="3" ry="3" style="stroke: #038048; stroke-width: 1.0;"/><text fill="#000000" font-family="sans-serif" font-size="11" lengthAdjust="spacingAndGlyphs" textLength="197" x="26" y="228.8433">toString()                                    : String</text></g></svg>