<?xml version="1.0" encoding="UTF-8" standalone="yes"?><svg xmlns="http://www.w3.org/2000/svg" xmlns:xlink="http://www.w3.org/1999/xlink" height="467pt" style="width:687px;height:467px;" version="1.1" viewBox="0 0 687 467" width="687pt"><defs><filter height="300%" id="f1" width="300%" x="-1" y="-1"><feGaussianBlur result="blurOut" stdDeviation="2.0"/><feColorMatrix in="blurOut" result="blurOut2" type="matrix" values="0 0 0 0 0 0 0 0 0 0 0 0 0 0 0 0 0 0 .4 0"/><feOffset dx="4.0" dy="4.0" in="blurOut2" result="blurOut3"/><feBlend in="SourceGraphic" in2="blurOut3" mode="normal"/></filter></defs><g><rect fill="#FEFECE" filter="url(#f1)" height="342.3843" style="stroke: #A80036; stroke-width: 1.5;" width="672" x="6" y="116"/><ellipse cx="296.25" cy="132" fill="#ADD1B2" rx="11" ry="11" style="stroke: #A80036; stroke-width: 1.0;"/><path d="M300.0781,137.6563 Q298.2031,138.3125 296.3906,138.3125 Q293.7969,138.3125 292.2109,136.5313 Q290.625,134.75 290.625,131.8438 Q290.625,129.1563 292.0313,127.3906 Q292.8906,126.3125 294.0078,125.8594 Q295.125,125.4063 296.9063,125.4063 Q298.625,125.4063 300.0781,125.7656 L300.0781,127.75 Q298.2031,127.0469 296.9531,127.0469 Q295.2656,127.0469 294.2734,128.3672 Q293.2813,129.6875 293.2813,131.9219 Q293.2813,133.9688 294.3203,135.2656 Q295.3594,136.5625 297,136.5625 Q298.3906,136.5625 300.0781,135.7813 L300.0781,137.6563 Z "/><text fill="#000000" font-family="sans-serif" font-size="12" lengthAdjust="spacingAndGlyphs" textLength="83" x="316.75" y="136.4209">TermRelations</text><line style="stroke: #A80036; stroke-width: 1.5;" x1="7" x2="677" y1="148" y2="148"/><ellipse cx="17.5" cy="157.2993" fill="#000000" rx="2.5" ry="2.5" style="stroke: #000000; stroke-width: 0.0;"/><text fill="#000000" font-family="sans-serif" font-size="11" lengthAdjust="spacingAndGlyphs" textLength="117" x="21" y="162.4521">relations     : Relations</text><ellipse cx="17.5" cy="170.0986" fill="#000000" rx="2.5" ry="2.5" style="stroke: #000000; stroke-width: 0.0;"/><text fill="#000000" font-family="sans-serif" font-size="11" lengthAdjust="spacingAndGlyphs" textLength="176" x="21" y="175.2515">children        : List&lt;List&lt;Term&gt;&gt;</text><line style="stroke: #A80036; stroke-width: 1.5;" x1="7" x2="677" y1="181.5986" y2="181.5986"/><ellipse cx="17" cy="193.4983" fill="#84BE84" rx="3" ry="3" style="stroke: #038048; stroke-width: 1.0;"/><text fill="#000000" font-family="sans-serif" font-size="11" lengthAdjust="spacingAndGlyphs" textLength="646" x="26" y="196.0508">TermRelations( @NonNull final String id, @NonNull final String name, @NonNull final String definition, Relations relations )</text><ellipse cx="17" cy="206.2976" fill="#84BE84" rx="3" ry="3" style="stroke: #038048; stroke-width: 1.0;"/><text fill="#000000" font-family="sans-serif" font-size="11" lengthAdjust="spacingAndGlyphs" textLength="541" x="26" y="208.8501">TermRelations( @NonNull final String id, @NonNull final String name, @NonNull final String definition )</text><ellipse cx="17" cy="219.0969" fill="#84BE84" rx="3" ry="3" style="stroke: #038048; stroke-width: 1.0;"/><text fill="#000000" font-family="sans-serif" font-size="11" lengthAdjust="spacingAndGlyphs" textLength="225" x="26" y="221.6494">getRelations()                                : Relations</text><ellipse cx="17" cy="231.8962" fill="#84BE84" rx="3" ry="3" style="stroke: #038048; stroke-width: 1.0;"/><text fill="#000000" font-family="sans-serif" font-size="11" lengthAdjust="spacingAndGlyphs" textLength="283" x="26" y="234.4487">getRelation( final String type )              : Set&lt;Relation&gt;</text><ellipse cx="17" cy="244.6956" fill="#84BE84" rx="3" ry="3" style="stroke: #038048; stroke-width: 1.0;"/><text fill="#000000" font-family="sans-serif" font-size="11" lengthAdjust="spacingAndGlyphs" textLength="262" x="26" y="247.248">isPartOf( @NonNull final String id )          : boolean</text><ellipse cx="17" cy="257.4949" fill="#84BE84" rx="3" ry="3" style="stroke: #038048; stroke-width: 1.0;"/><text fill="#000000" font-family="sans-serif" font-size="11" lengthAdjust="spacingAndGlyphs" textLength="302" x="26" y="260.0474">hasInputCompound(@NonNull final String id )   : boolean</text><ellipse cx="17" cy="270.2942" fill="#84BE84" rx="3" ry="3" style="stroke: #038048; stroke-width: 1.0;"/><text fill="#000000" font-family="sans-serif" font-size="11" lengthAdjust="spacingAndGlyphs" textLength="313" x="26" y="272.8467">hasInputCompound(@NonNull final Term term )   : boolean</text><ellipse cx="17" cy="283.0935" fill="#84BE84" rx="3" ry="3" style="stroke: #038048; stroke-width: 1.0;"/><text fill="#000000" font-family="sans-serif" font-size="11" lengthAdjust="spacingAndGlyphs" textLength="309" x="26" y="285.646">hasOutputCompound(@NonNull final String id )  : boolean</text><ellipse cx="17" cy="295.8928" fill="#84BE84" rx="3" ry="3" style="stroke: #038048; stroke-width: 1.0;"/><text fill="#000000" font-family="sans-serif" font-size="11" lengthAdjust="spacingAndGlyphs" textLength="320" x="26" y="298.4453">hasOutputCompound(@NonNull final Term term )  : boolean</text><ellipse cx="17" cy="308.6921" fill="#84BE84" rx="3" ry="3" style="stroke: #038048; stroke-width: 1.0;"/><text fill="#000000" font-family="sans-serif" font-size="11" lengthAdjust="spacingAndGlyphs" textLength="480" x="26" y="311.2446">hasAtLeastOneCommonOutputCompound( @NonNull final TermRelations term ) : boolean</text><ellipse cx="17" cy="321.4915" fill="#84BE84" rx="3" ry="3" style="stroke: #038048; stroke-width: 1.0;"/><text fill="#000000" font-family="sans-serif" font-size="11" lengthAdjust="spacingAndGlyphs" textLength="470" x="26" y="324.0439">hasAtLeastOneCommonInputCompound( @NonNull final TermRelations term ) : boolean</text><ellipse cx="17" cy="334.2908" fill="#84BE84" rx="3" ry="3" style="stroke: #038048; stroke-width: 1.0;"/><text fill="#000000" font-family="sans-serif" font-size="11" lengthAdjust="spacingAndGlyphs" textLength="315" x="26" y="336.8433">isVariantOf( @NonNull final TermRelations term )  : boolean</text><ellipse cx="17" cy="347.0901" fill="#84BE84" rx="3" ry="3" style="stroke: #038048; stroke-width: 1.0;"/><text fill="#000000" font-family="sans-serif" font-size="11" lengthAdjust="spacingAndGlyphs" textLength="291" x="26" y="349.6426">isAfter( @NonNull final TermRelations term )  : boolean</text><ellipse cx="17" cy="359.8894" fill="#84BE84" rx="3" ry="3" style="stroke: #038048; stroke-width: 1.0;"/><text fill="#000000" font-family="sans-serif" font-size="11" lengthAdjust="spacingAndGlyphs" textLength="295" x="26" y="362.4419">isBefore( @NonNull final TermRelations term ) : boolean</text><ellipse cx="17" cy="372.6887" fill="#84BE84" rx="3" ry="3" style="stroke: #038048; stroke-width: 1.0;"/><text fill="#000000" font-family="sans-serif" font-size="11" lengthAdjust="spacingAndGlyphs" textLength="296" x="26" y="375.2412">isLinked( @NonNull final TermRelations term ) : boolean</text><ellipse cx="17" cy="385.488" fill="#84BE84" rx="3" ry="3" style="stroke: #038048; stroke-width: 1.0;"/><text fill="#000000" font-family="sans-serif" font-size="11" lengthAdjust="spacingAndGlyphs" textLength="245" x="26" y="388.0405">add( @NonNull final Term term )               : void</text><ellipse cx="17" cy="398.2874" fill="#84BE84" rx="3" ry="3" style="stroke: #038048; stroke-width: 1.0;"/><text fill="#000000" font-family="sans-serif" font-size="11" lengthAdjust="spacingAndGlyphs" textLength="300" x="26" y="400.8398">addAll( @NonNull final List&lt;List&lt;Term&gt;&gt; terms )  : void</text><ellipse cx="17" cy="411.0867" fill="#84BE84" rx="3" ry="3" style="stroke: #038048; stroke-width: 1.0;"/><text fill="#000000" font-family="sans-serif" font-size="11" lengthAdjust="spacingAndGlyphs" textLength="247" x="26" y="413.6392">get( final int index )                        : List&lt;Term&gt;</text><ellipse cx="17" cy="423.886" fill="#84BE84" rx="3" ry="3" style="stroke: #038048; stroke-width: 1.0;"/><text fill="#000000" font-family="sans-serif" font-size="11" lengthAdjust="spacingAndGlyphs" textLength="285" x="26" y="426.4385">iterator()                                    : Iterator&lt;List&lt;Term&gt;&gt;</text><ellipse cx="17" cy="436.6853" fill="#84BE84" rx="3" ry="3" style="stroke: #038048; stroke-width: 1.0;"/><text fill="#000000" font-family="sans-serif" font-size="11" lengthAdjust="spacingAndGlyphs" textLength="284" x="26" y="439.2378">getChildren()                                   : List&lt;List&lt;Term&gt;&gt;</text><ellipse cx="17" cy="449.4846" fill="#84BE84" rx="3" ry="3" style="stroke: #038048; stroke-width: 1.0;"/><text fill="#000000" font-family="sans-serif" font-size="11" lengthAdjust="spacingAndGlyphs" textLength="197" x="26" y="452.0371">toString()                                    : String</text><rect fill="#FEFECE" filter="url(#f1)" height="48" style="stroke: #A80036; stroke-width: 1.5;" width="63" x="310.5" y="8"/><ellipse cx="325.5" cy="24" fill="#ADD1B2" rx="11" ry="11" style="stroke: #A80036; stroke-width: 1.0;"/><path d="M329.3281,29.6563 Q327.4531,30.3125 325.6406,30.3125 Q323.0469,30.3125 321.4609,28.5313 Q319.875,26.75 319.875,23.8438 Q319.875,21.1563 321.2813,19.3906 Q322.1406,18.3125 323.2578,17.8594 Q324.375,17.4063 326.1563,17.4063 Q327.875,17.4063 329.3281,17.7656 L329.3281,19.75 Q327.4531,19.0469 326.2031,19.0469 Q324.5156,19.0469 323.5234,20.3672 Q322.5313,21.6875 322.5313,23.9219 Q322.5313,25.9688 323.5703,27.2656 Q324.6094,28.5625 326.25,28.5625 Q327.6406,28.5625 329.3281,27.7813 L329.3281,29.6563 Z "/><text fill="#000000" font-family="sans-serif" font-size="12" lengthAdjust="spacingAndGlyphs" textLength="31" x="339.5" y="28.4209">Term</text><line style="stroke: #A80036; stroke-width: 1.5;" x1="311.5" x2="372.5" y1="40" y2="40"/><line style="stroke: #A80036; stroke-width: 1.5;" x1="311.5" x2="372.5" y1="48" y2="48"/><path d="M342,76.514 C342,88.201 342,101.58 342,115.798 " fill="none" style="stroke: #A80036; stroke-width: 1.0;"/><polygon fill="none" points="335,76.348,342,56.348,349,76.348,335,76.348" style="stroke: #A80036; stroke-width: 1.0;"/></g></svg>