<?xml version="1.0" encoding="UTF-8" standalone="yes"?><svg xmlns="http://www.w3.org/2000/svg" xmlns:xlink="http://www.w3.org/1999/xlink" height="185pt" style="width:638px;height:185px;" version="1.1" viewBox="0 0 638 185" width="638pt"><defs><filter height="300%" id="f1" width="300%" x="-1" y="-1"><feGaussianBlur result="blurOut" stdDeviation="2.0"/><feColorMatrix in="blurOut" result="blurOut2" type="matrix" values="0 0 0 0 0 0 0 0 0 0 0 0 0 0 0 0 0 0 .4 0"/><feOffset dx="4.0" dy="4.0" in="blurOut2" result="blurOut3"/><feBlend in="SourceGraphic" in2="blurOut3" mode="normal"/></filter></defs><g><rect fill="#FEFECE" filter="url(#f1)" height="60.7993" style="stroke: #A80036; stroke-width: 1.5;" width="623" x="6" y="116"/><ellipse cx="301.75" cy="132" fill="#ADD1B2" rx="11" ry="11" style="stroke: #A80036; stroke-width: 1.0;"/><path d="M305.5781,137.6563 Q303.7031,138.3125 301.8906,138.3125 Q299.2969,138.3125 297.7109,136.5313 Q296.125,134.75 296.125,131.8438 Q296.125,129.1563 297.5313,127.3906 Q298.3906,126.3125 299.5078,125.8594 Q300.625,125.4063 302.4063,125.4063 Q304.125,125.4063 305.5781,125.7656 L305.5781,127.75 Q303.7031,127.0469 302.4531,127.0469 Q300.7656,127.0469 299.7734,128.3672 Q298.7813,129.6875 298.7813,131.9219 Q298.7813,133.9688 299.8203,135.2656 Q300.8594,136.5625 302.5,136.5625 Q303.8906,136.5625 305.5781,135.7813 L305.5781,137.6563 Z "/><text fill="#000000" font-family="sans-serif" font-size="12" lengthAdjust="spacingAndGlyphs" textLength="23" x="322.25" y="136.4209">UER</text><line style="stroke: #A80036; stroke-width: 1.5;" x1="7" x2="628" y1="148" y2="148"/><line style="stroke: #A80036; stroke-width: 1.5;" x1="7" x2="628" y1="156" y2="156"/><ellipse cx="17.5" cy="165.2993" fill="#000000" rx="2.5" ry="2.5" style="stroke: #000000; stroke-width: 0.0;"/><text fill="#000000" font-family="sans-serif" font-size="11" lengthAdjust="spacingAndGlyphs" textLength="602" x="21" y="170.4521">+ UER( @NonNull final String id, @NonNull final String name, @NonNull final String definition, Relations relations )</text><rect fill="#FEFECE" filter="url(#f1)" height="48" style="stroke: #A80036; stroke-width: 1.5;" width="115" x="260" y="8"/><ellipse cx="275" cy="24" fill="#ADD1B2" rx="11" ry="11" style="stroke: #A80036; stroke-width: 1.0;"/><path d="M278.8281,29.6563 Q276.9531,30.3125 275.1406,30.3125 Q272.5469,30.3125 270.9609,28.5313 Q269.375,26.75 269.375,23.8438 Q269.375,21.1563 270.7813,19.3906 Q271.6406,18.3125 272.7578,17.8594 Q273.875,17.4063 275.6563,17.4063 Q277.375,17.4063 278.8281,17.7656 L278.8281,19.75 Q276.9531,19.0469 275.7031,19.0469 Q274.0156,19.0469 273.0234,20.3672 Q272.0313,21.6875 272.0313,23.9219 Q272.0313,25.9688 273.0703,27.2656 Q274.1094,28.5625 275.75,28.5625 Q277.1406,28.5625 278.8281,27.7813 L278.8281,29.6563 Z "/><text fill="#000000" font-family="sans-serif" font-size="12" lengthAdjust="spacingAndGlyphs" textLength="83" x="289" y="28.4209">TermRelations</text><line style="stroke: #A80036; stroke-width: 1.5;" x1="261" x2="374" y1="40" y2="40"/><line style="stroke: #A80036; stroke-width: 1.5;" x1="261" x2="374" y1="48" y2="48"/><path d="M317.5,76.109 C317.5,89.3115 317.5,103.5368 317.5,115.6497 " fill="none" style="stroke: #A80036; stroke-width: 1.0;"/><polygon fill="none" points="310.5,76.038,317.5,56.038,324.5,76.037,310.5,76.038" style="stroke: #A80036; stroke-width: 1.0;"/></g></svg>