<?xml version="1.0" encoding="UTF-8" standalone="yes"?><svg xmlns="http://www.w3.org/2000/svg" xmlns:xlink="http://www.w3.org/1999/xlink" height="185pt" style="width:637px;height:185px;" version="1.1" viewBox="0 0 637 185" width="637pt"><defs><filter height="300%" id="f1" width="300%" x="-1" y="-1"><feGaussianBlur result="blurOut" stdDeviation="2.0"/><feColorMatrix in="blurOut" result="blurOut2" type="matrix" values="0 0 0 0 0 0 0 0 0 0 0 0 0 0 0 0 0 0 .4 0"/><feOffset dx="4.0" dy="4.0" in="blurOut2" result="blurOut3"/><feBlend in="SourceGraphic" in2="blurOut3" mode="normal"/></filter></defs><g><rect fill="#FEFECE" filter="url(#f1)" height="60.7993" style="stroke: #A80036; stroke-width: 1.5;" width="622" x="6" y="116"/><ellipse cx="302.75" cy="132" fill="#ADD1B2" rx="11" ry="11" style="stroke: #A80036; stroke-width: 1.0;"/><path d="M306.5781,137.6563 Q304.7031,138.3125 302.8906,138.3125 Q300.2969,138.3125 298.7109,136.5313 Q297.125,134.75 297.125,131.8438 Q297.125,129.1563 298.5313,127.3906 Q299.3906,126.3125 300.5078,125.8594 Q301.625,125.4063 303.4063,125.4063 Q305.125,125.4063 306.5781,125.7656 L306.5781,127.75 Q304.7031,127.0469 303.4531,127.0469 Q301.7656,127.0469 300.7734,128.3672 Q299.7813,129.6875 299.7813,131.9219 Q299.7813,133.9688 300.8203,135.2656 Q301.8594,136.5625 303.5,136.5625 Q304.8906,136.5625 306.5781,135.7813 L306.5781,137.6563 Z "/><text fill="#000000" font-family="sans-serif" font-size="12" lengthAdjust="spacingAndGlyphs" textLength="20" x="323.25" y="136.4209">ULS</text><line style="stroke: #A80036; stroke-width: 1.5;" x1="7" x2="627" y1="148" y2="148"/><line style="stroke: #A80036; stroke-width: 1.5;" x1="7" x2="627" y1="156" y2="156"/><ellipse cx="17.5" cy="165.2993" fill="#000000" rx="2.5" ry="2.5" style="stroke: #000000; stroke-width: 0.0;"/><text fill="#000000" font-family="sans-serif" font-size="11" lengthAdjust="spacingAndGlyphs" textLength="601" x="21" y="170.4521">+ ULS( @NonNull final String id, @NonNull final String name, @NonNull final String definition, Relations relations )</text><rect fill="#FEFECE" filter="url(#f1)" height="48" style="stroke: #A80036; stroke-width: 1.5;" width="115" x="259.5" y="8"/><ellipse cx="274.5" cy="24" fill="#ADD1B2" rx="11" ry="11" style="stroke: #A80036; stroke-width: 1.0;"/><path d="M278.3281,29.6563 Q276.4531,30.3125 274.6406,30.3125 Q272.0469,30.3125 270.4609,28.5313 Q268.875,26.75 268.875,23.8438 Q268.875,21.1563 270.2813,19.3906 Q271.1406,18.3125 272.2578,17.8594 Q273.375,17.4063 275.1563,17.4063 Q276.875,17.4063 278.3281,17.7656 L278.3281,19.75 Q276.4531,19.0469 275.2031,19.0469 Q273.5156,19.0469 272.5234,20.3672 Q271.5313,21.6875 271.5313,23.9219 Q271.5313,25.9688 272.5703,27.2656 Q273.6094,28.5625 275.25,28.5625 Q276.6406,28.5625 278.3281,27.7813 L278.3281,29.6563 Z "/><text fill="#000000" font-family="sans-serif" font-size="12" lengthAdjust="spacingAndGlyphs" textLength="83" x="288.5" y="28.4209">TermRelations</text><line style="stroke: #A80036; stroke-width: 1.5;" x1="260.5" x2="373.5" y1="40" y2="40"/><line style="stroke: #A80036; stroke-width: 1.5;" x1="260.5" x2="373.5" y1="48" y2="48"/><path d="M317,76.109 C317,89.3115 317,103.5368 317,115.6497 " fill="none" style="stroke: #A80036; stroke-width: 1.0;"/><polygon fill="none" points="310,76.038,317,56.038,324,76.037,310,76.038" style="stroke: #A80036; stroke-width: 1.0;"/></g></svg>