<?xml version="1.0" encoding="UTF-8" standalone="yes"?><svg xmlns="http://www.w3.org/2000/svg" xmlns:xlink="http://www.w3.org/1999/xlink" height="128pt" style="width:408px;height:128px;" version="1.1" viewBox="0 0 408 128" width="408pt"><defs><filter height="300%" id="f1" width="300%" x="-1" y="-1"><feGaussianBlur result="blurOut" stdDeviation="2.0"/><feColorMatrix in="blurOut" result="blurOut2" type="matrix" values="0 0 0 0 0 0 0 0 0 0 0 0 0 0 0 0 0 0 .4 0"/><feOffset dx="4.0" dy="4.0" in="blurOut2" result="blurOut3"/><feBlend in="SourceGraphic" in2="blurOut3" mode="normal"/></filter></defs><g><rect fill="#FEFECE" filter="url(#f1)" height="111.9966" style="stroke: #A80036; stroke-width: 1.5;" width="393" x="6" y="8"/><ellipse cx="154.25" cy="24" fill="#ADD1B2" rx="11" ry="11" style="stroke: #A80036; stroke-width: 1.0;"/><path d="M158.0781,29.6563 Q156.2031,30.3125 154.3906,30.3125 Q151.7969,30.3125 150.2109,28.5313 Q148.625,26.75 148.625,23.8438 Q148.625,21.1563 150.0313,19.3906 Q150.8906,18.3125 152.0078,17.8594 Q153.125,17.4063 154.9063,17.4063 Q156.625,17.4063 158.0781,17.7656 L158.0781,19.75 Q156.2031,19.0469 154.9531,19.0469 Q153.2656,19.0469 152.2734,20.3672 Q151.2813,21.6875 151.2813,23.9219 Q151.2813,25.9688 152.3203,27.2656 Q153.3594,28.5625 155,28.5625 Q156.3906,28.5625 158.0781,27.7813 L158.0781,29.6563 Z "/><text fill="#000000" font-family="sans-serif" font-size="12" lengthAdjust="spacingAndGlyphs" textLength="88" x="174.75" y="28.4209">UnipathwayUnit</text><line style="stroke: #A80036; stroke-width: 1.5;" x1="7" x2="398" y1="40" y2="40"/><rect fill="none" height="6" style="stroke: #C82930; stroke-width: 1.0;" width="6" x="14" y="48.8997"/><text fill="#000000" font-family="sans-serif" font-size="11" lengthAdjust="spacingAndGlyphs" text-decoration="underline" textLength="205" x="26" y="54.4521">units :  List&lt;Class&lt;? extends Term&gt;&gt;</text><rect fill="none" height="6" style="stroke: #C82930; stroke-width: 1.0;" width="6" x="14" y="61.699"/><text fill="#000000" font-family="sans-serif" font-size="11" lengthAdjust="spacingAndGlyphs" textLength="58" x="26" y="67.2515">unit : Term</text><line style="stroke: #A80036; stroke-width: 1.5;" x1="7" x2="398" y1="73.5986" y2="73.5986"/><ellipse cx="17" cy="85.4983" fill="#84BE84" rx="3" ry="3" style="stroke: #038048; stroke-width: 1.0;"/><text fill="#000000" font-family="sans-serif" font-size="11" lengthAdjust="spacingAndGlyphs" textLength="232" x="26" y="88.0508">UnipathwayUnit( @NonNull final Term term)</text><ellipse cx="17" cy="98.2976" fill="#84BE84" rx="3" ry="3" style="stroke: #038048; stroke-width: 1.0;"/><text fill="#000000" font-family="sans-serif" font-size="11" lengthAdjust="spacingAndGlyphs" textLength="363" x="26" y="100.8501">isAfter( @NonNull final Class&lt;? extends Term&gt; termType) : boolean</text><ellipse cx="17" cy="111.0969" fill="#84BE84" rx="3" ry="3" style="stroke: #038048; stroke-width: 1.0;"/><text fill="#000000" font-family="sans-serif" font-size="11" lengthAdjust="spacingAndGlyphs" textLength="367" x="26" y="113.6494">isBefore( @NonNull final Class&lt;? extends Term&gt; termType): boolean</text></g></svg>