<?xml version="1.0" encoding="UTF-8" standalone="yes"?><svg xmlns="http://www.w3.org/2000/svg" xmlns:xlink="http://www.w3.org/1999/xlink" height="185pt" style="width:639px;height:185px;" version="1.1" viewBox="0 0 639 185" width="639pt"><defs><filter height="300%" id="f1" width="300%" x="-1" y="-1"><feGaussianBlur result="blurOut" stdDeviation="2.0"/><feColorMatrix in="blurOut" result="blurOut2" type="matrix" values="0 0 0 0 0 0 0 0 0 0 0 0 0 0 0 0 0 0 .4 0"/><feOffset dx="4.0" dy="4.0" in="blurOut2" result="blurOut3"/><feBlend in="SourceGraphic" in2="blurOut3" mode="normal"/></filter></defs><g><rect fill="#FEFECE" filter="url(#f1)" height="60.7993" style="stroke: #A80036; stroke-width: 1.5;" width="624" x="6" y="116"/><ellipse cx="302.25" cy="132" fill="#ADD1B2" rx="11" ry="11" style="stroke: #A80036; stroke-width: 1.0;"/><path d="M306.0781,137.6563 Q304.2031,138.3125 302.3906,138.3125 Q299.7969,138.3125 298.2109,136.5313 Q296.625,134.75 296.625,131.8438 Q296.625,129.1563 298.0313,127.3906 Q298.8906,126.3125 300.0078,125.8594 Q301.125,125.4063 302.9063,125.4063 Q304.625,125.4063 306.0781,125.7656 L306.0781,127.75 Q304.2031,127.0469 302.9531,127.0469 Q301.2656,127.0469 300.2734,128.3672 Q299.2813,129.6875 299.2813,131.9219 Q299.2813,133.9688 300.3203,135.2656 Q301.3594,136.5625 303,136.5625 Q304.3906,136.5625 306.0781,135.7813 L306.0781,137.6563 Z "/><text fill="#000000" font-family="sans-serif" font-size="12" lengthAdjust="spacingAndGlyphs" textLength="23" x="322.75" y="136.4209">UPA</text><line style="stroke: #A80036; stroke-width: 1.5;" x1="7" x2="629" y1="148" y2="148"/><line style="stroke: #A80036; stroke-width: 1.5;" x1="7" x2="629" y1="156" y2="156"/><ellipse cx="17.5" cy="165.2993" fill="#000000" rx="2.5" ry="2.5" style="stroke: #000000; stroke-width: 0.0;"/><text fill="#000000" font-family="sans-serif" font-size="11" lengthAdjust="spacingAndGlyphs" textLength="603" x="21" y="170.4521">+ UPA( @NonNull final String id, @NonNull final String name, @NonNull final String definition, Relations relations )</text><rect fill="#FEFECE" filter="url(#f1)" height="48" style="stroke: #A80036; stroke-width: 1.5;" width="115" x="260.5" y="8"/><ellipse cx="275.5" cy="24" fill="#ADD1B2" rx="11" ry="11" style="stroke: #A80036; stroke-width: 1.0;"/><path d="M279.3281,29.6563 Q277.4531,30.3125 275.6406,30.3125 Q273.0469,30.3125 271.4609,28.5313 Q269.875,26.75 269.875,23.8438 Q269.875,21.1563 271.2813,19.3906 Q272.1406,18.3125 273.2578,17.8594 Q274.375,17.4063 276.1563,17.4063 Q277.875,17.4063 279.3281,17.7656 L279.3281,19.75 Q277.4531,19.0469 276.2031,19.0469 Q274.5156,19.0469 273.5234,20.3672 Q272.5313,21.6875 272.5313,23.9219 Q272.5313,25.9688 273.5703,27.2656 Q274.6094,28.5625 276.25,28.5625 Q277.6406,28.5625 279.3281,27.7813 L279.3281,29.6563 Z "/><text fill="#000000" font-family="sans-serif" font-size="12" lengthAdjust="spacingAndGlyphs" textLength="83" x="289.5" y="28.4209">TermRelations</text><line style="stroke: #A80036; stroke-width: 1.5;" x1="261.5" x2="374.5" y1="40" y2="40"/><line style="stroke: #A80036; stroke-width: 1.5;" x1="261.5" x2="374.5" y1="48" y2="48"/><path d="M318,76.109 C318,89.3115 318,103.5368 318,115.6497 " fill="none" style="stroke: #A80036; stroke-width: 1.0;"/><polygon fill="none" points="311,76.038,318,56.038,325,76.037,311,76.038" style="stroke: #A80036; stroke-width: 1.0;"/></g></svg>